<?xml version="1.0" encoding="UTF-8" standalone="no" ?>
<!DOCTYPE svg PUBLIC "-//W3C//DTD SVG 1.1//EN" "http://www.w3.org/Graphics/SVG/1.1/DTD/svg11.dtd">
<svg xmlns="http://www.w3.org/2000/svg" xmlns:xlink="http://www.w3.org/1999/xlink" version="1.1" width="708" height="612" viewBox="0 0 708 612" xml:space="preserve">
<desc>Created with Fabric.js 5.3.0</desc>
<defs>
</defs>
<g transform="matrix(0.9985855762 0 0 0.9276410883 354.0000025868 297.7906636802)" id="1TSSJGpNJeaVX_u-5hkpo"  >
<path style="stroke: rgb(42,63,214); stroke-width: 0; stroke-dasharray: none; stroke-linecap: butt; stroke-dashoffset: 0; stroke-linejoin: miter; stroke-miterlimit: 4; fill: rgb(0,0,0); fill-rule: nonzero; opacity: 1;"  transform=" translate(0, 0)" d="M -256.43238 -256.43238 L 256.43236999999993 -256.43238 L 256.43236999999993 256.43236999999993 L -256.43238 256.43236999999993 z" stroke-linecap="round" />
</g>
<g transform="matrix(0.8874175192 0 0 0.9501259785 235.6154559665 240.0726237841)" id="o8vMAZZeP5F0Iwe4pFxkm"  >
<path style="stroke: rgb(73,179,187); stroke-width: 0; stroke-dasharray: none; stroke-linecap: butt; stroke-dashoffset: 0; stroke-linejoin: miter; stroke-miterlimit: 4; fill: rgb(255,255,255); fill-rule: nonzero; opacity: 1;"  transform=" translate(0, 0)" d="M -80.28169 -80.28169 L 80.28169 -80.28169 L 80.28169 80.28169 L -80.28169 80.28169 z" stroke-linecap="round" />
</g>
<g transform="matrix(1.1886445747 0 0 1.1913338646 381.3398340701 374.2191536802)" id="y6cMa6VrP5BchGiEeUf5c"  >
<path style="stroke: rgb(122,120,96); stroke-width: 0; stroke-dasharray: none; stroke-linecap: butt; stroke-dashoffset: 0; stroke-linejoin: miter; stroke-miterlimit: 4; fill: rgb(255,255,255); fill-rule: nonzero; opacity: 1;"  transform=" translate(-86.6025438512, -74.9999970021)" d="M 129.90368 0 L 173.20509 75 L 129.90368 150 L 43.301400000000015 150 L -0.000009999999981857854 75 L 43.301400000000015 0 z" stroke-linecap="round" />
</g>
<g transform="matrix(2.2577616159 0 0 1.6078431584 460.799942649 245.9278082637)" id="9KPKInGbVtJvTuYmNhrIF"  >
<path style="stroke: rgb(142,161,65); stroke-width: 0; stroke-dasharray: none; stroke-linecap: butt; stroke-dashoffset: 0; stroke-linejoin: miter; stroke-miterlimit: 4; fill: rgb(255,255,255); fill-rule: nonzero; opacity: 1;"  transform=" translate(0, 0)" d="M -53.87324 -53.87324 L 53.87324 -53.87324 L 53.87324 53.87324 L -53.87324 53.87324 z" stroke-linecap="round" />
</g>
<g transform="matrix(1 0 0 1 354.0000025868 306.5794538061)" id="44qVbX9tydD6FNc8P5y7i"  >
<path style="stroke: rgb(0,0,0); stroke-width: 1; stroke-dasharray: none; stroke-linecap: butt; stroke-dashoffset: 0; stroke-linejoin: miter; stroke-miterlimit: 4; fill: rgb(157,116,2); fill-rule: nonzero; opacity: 1;"  transform=" translate(-228.837755, -188.368605)" d="M 457.67551 0.00001 L 457.67551 97.61710000000001 L 401.53914999999995 97.61710000000001 L 401.53914999999995 54.66255000000001 L 226.08459999999994 54.66255000000001 L 226.08459999999994 134.89076 L 307.44823999999994 134.89076 L 377.9027899999999 204.91048 L 401.53914999999995 204.91048 L 401.53914999999995 159.22866 L 457.67551 159.22866 L 457.67551 258.54684 L 382.90742 258.54684 L 382.90742 301.27410999999995 L 307.44824 376.73720999999995 L 198.59316 376.73720999999995 L 123.13006000000001 301.27410999999995 L 123.13006000000001 236.72865999999993 L 1.4210854715202004e-14 236.72865999999993 L 1.4210854715202004e-14 -5.684341886080802e-14 z M 46.25208 49.83673 L 46.25208 190.07981999999998 L 153.03793 190.07981999999998 L 177.18776 166.78357 L 177.18776 74.48404 L 153.03793 49.83672999999999 z M 178.4397 230.38981 L 178.4397 282.62602000000004 L 222.20369 326.07107 L 290.32114 326.07107 L 333.91548 282.62602000000004 L 333.91548 230.38981000000004 L 290.32114 187.66541000000004 L 222.20369 187.66541000000004 z" stroke-linecap="round" />
</g>
<g transform="matrix(1 0 0 1 315.8345159265 308.2906646079)" id="JlO4Oq7Bxqc2yMioKVw_v"  >
<path style="stroke: rgb(0,0,0); stroke-width: 1; stroke-dasharray: none; stroke-linecap: butt; stroke-dashoffset: 0; stroke-linejoin: miter; stroke-miterlimit: 4; fill: rgb(0,0,0); fill-rule: nonzero; opacity: 1;"  transform=" translate(-181.49568, -178.87111)" d="M 158.82002 0.00001 L 206.71884 48.366260000000004 L 206.71884 136.78604 L 294.42851 136.78604 L 362.99136 205.00797 L 362.99136 289.38026 L 294.42850999999996 357.74222000000003 L 193.75070999999997 357.74222000000003 L 125.38874999999997 289.38026 L 125.38874999999997 217.30097 L -2.842170943040401e-14 217.30097 L -2.842170943040401e-14 0 z M 38.54613 39.62803 L 38.54613 178.87112 L 143.9265 178.87112 L 169.10846 153.68916 L 169.10846 64.95931999999999 L 143.9265 39.628029999999995 z M 169.26311 219.1811 L 169.26311 271.41731 L 213.02710000000002 314.86235999999997 L 281.14455000000004 314.86235999999997 L 324.73889 271.41731 L 324.73889 219.1811 L 281.14455000000004 176.45669999999998 L 213.02710000000002 176.45669999999998 z" stroke-linecap="round" />
</g>
<g transform="matrix(1 0 0 1 236.8821691233 238.1691196079)" id="47WSRn95oZDbvRTW_OC8L"  >
<path style="stroke: rgb(0,0,0); stroke-width: 1; stroke-dasharray: none; stroke-linecap: butt; stroke-dashoffset: 0; stroke-linejoin: miter; stroke-miterlimit: 4; fill: rgb(157,116,2); fill-rule: nonzero; opacity: 1;"  transform=" translate(-68.80884, -73.874215)" d="M 110.36242 0 L 137.61768 27.24551 L 137.61768 120.49316999999999 L 110.36242000000001 147.74842999999998 L 1.4210854715202004e-14 147.74842999999998 L 1.4210854715202004e-14 -2.842170943040401e-14 z M 6.98332 7.20831 L 6.98332 140.54012 L 106.1452 140.54012 L 130.63436000000002 115.9443 L 130.63436000000002 31.795329999999993 L 106.14520000000002 7.208309999999994 z" stroke-linecap="round" />
</g>
<g transform="matrix(1 0 0 1 381.3398340701 374.2191536802)" id="lz3q_iwdhpGQXlarm_4Ms"  >
<path style="stroke: rgb(0,0,0); stroke-width: 1; stroke-dasharray: none; stroke-linecap: butt; stroke-dashoffset: 0; stroke-linejoin: miter; stroke-miterlimit: 4; fill: rgb(157,116,2); fill-rule: nonzero; opacity: 1;"  transform=" translate(-84.67146, -75.92849)" d="M 47.66737 0 L 121.86033 0 L 169.34292 46.87668 L 169.34292 104.18961 L 121.86032999999999 151.85698 L 47.66736999999999 151.85698 L -7.105427357601002e-15 104.18960999999999 L -7.105427357601002e-15 46.876679999999986 z M 6.93357 50.30999 L 6.93357 102.5462 L 50.697559999999996 145.99125 L 118.81501 145.99125 L 162.40935000000002 102.5462 L 162.40935000000002 50.30999 L 118.81501000000002 7.585589999999996 L 50.69756000000001 7.585589999999996 z" stroke-linecap="round" />
</g>
<g transform="matrix(1 0 0 1 541.5764112536 324.2389104519)" id="Vfhie4bw8suIHznwTbyIZ"  >
<path style="stroke: rgb(0,0,0); stroke-width: 1; stroke-dasharray: none; stroke-linecap: butt; stroke-dashoffset: 0; stroke-linejoin: miter; stroke-miterlimit: 4; fill: rgb(0,0,0); fill-rule: nonzero; opacity: 1;"  transform=" translate(-0.000005, 0)" d="M -33.08846 4.16921 L -33.08846 40.68964 L 33.08847 40.68964 L 33.08847 -40.68964 L -4.174030000000002 -40.68964 L -4.174030000000002 4.16921 z" stroke-linecap="round" />
</g>
<g transform="matrix(1 0 0 1 441.011854058 168.0475746079)" id="cPq9TIO5oEJagaxC9TYac"  >
<path style="stroke: rgb(0,0,0); stroke-width: 1; stroke-dasharray: none; stroke-linecap: butt; stroke-dashoffset: 0; stroke-linejoin: miter; stroke-miterlimit: 4; fill: rgb(0,0,0); fill-rule: nonzero; opacity: 1;"  transform=" translate(0, -0.000005)" d="M -133.65302 -40.12802 L -98.00916000000001 -4.618360000000003 L 94.87137999999999 -4.618360000000003 L 94.87137999999999 40.128029999999995 L 133.65302 40.128029999999995 L 133.65302 -40.12802000000001 z" stroke-linecap="round" />
</g>
</svg>