<svg version="1.2" xmlns="http://www.w3.org/2000/svg" viewBox="0 0 218 217" width="218" height="217"><style>.a{fill:#fff}.b{fill:#171c22}</style><path fill-rule="evenodd" class="a" d="m182.8 216.9h-147.3c-19 0-34.6-15.5-34.6-34.5v-147.4c0-19 15.6-34.5 34.6-34.5h147.3c19 0 34.6 15.5 34.6 34.5v147.4c0 19-15.6 34.5-34.6 34.5z"/><path fill-rule="evenodd" class="b" d="m88.9 190.3h29.5v-68h21.8l4.3-27.5h-26.1v-20.8c0-7.7 7.4-12.1 14.5-12.1h12.7v-22.8l-22.8-0.9c-21.8-1.4-33.9 15.7-33.9 36.2v20.4h-24.8v27.5h24.8z"/></svg>